General                          : ChattChitto RG - Movies
==========
Complete name                    : Astro Boy 2009 BDRip.MP4
Format                           : MPEG-4
Format profile                   : Base Media
Codec ID                         : isom
File size                        : 1.74 GiB
Duration                         : 1h 33mn
Overall bit rate                 : 2 652 Kbps
Encoded date                     : UTC 2010-03-17 13:32:59

Video
==========
ID                               : 1
Format                           : AVC
Format/Info                      : Advanced Video Codec
Format profile                   : High@L3.1
Format settings, CABAC           : Yes
Format settings, ReFrames        : 3 frames
Codec ID                         : avc1
Codec ID/Info                    : Advanced Video Coding
Duration                         : 1h 33mn
Bit rate mode                    : Variable
Bit rate                         : 2 300 Kbps
Maximum bit rate                 : 16.2 Mbps
Width                            : 1 280 pixels
Height                           : 544 pixels
Display aspect ratio             : 2.35:1
Frame rate mode                  : Constant
Frame rate                       : 23.976 fps
Resolution                       : 8 bits
Colorimetry                      : 4:2:0
Scan type                        : Progressive
Bits/(Pixel*Frame)               : 0.138
Stream size                      : 1.51 GiB (87%)
Writing library                  : x264 core 76 r1271 496d79d
Encoded date                     : UTC 2010-03-17 08:06:20

Audio
==========
ID                               : 2
Format                           : AAC
Format/Info                      : Advanced Audio Codec
Format version                   : Version 4
Format profile                   : LC
Format settings, SBR             : No
Codec ID                         : 40
Duration                         : 1h 33mn
Bit rate mode                    : Variable
Bit rate                         : 352.8 Kbps
Maximum bit rate                 : 453 Kbps
Channel(s)                       : 6 channels
Channel positions                : Front: L C R, Side: L R, LFE
Sampling rate                    : 48.0 KHz
Stream size                      : 234 MiB (13%)
Encoded date                     : UTC 2010-03-17 13:35:09

Subtitles                        : English | Spanish



----------------------------------------------------
IMDB Link: http://www.imdb.com/title/tt0375568/
----------------------------------------------------


Screen Shots:
============== 
http://bayimg.com/iAlhmAaCF 
http://bayimg.com/IALHlaAcf 
http://bayimg.com/iAlhJaaCF 
http://bayimg.com/ialHiaaCF 
http://bayimg.com/ialHhaaCf



Plot:
======
Set in futuristic Metro City, Astro Boy is a young robot with incredible powers created by a brilliant scientist named Dr. Tenma. Powered by positive "blue" energy, Astro Boy is endowed with super strength, x-ray vision, unbelievable speed and the ability to fly. Embarking on a journey in search of acceptance, Astro Boy encounters many other colorful characters along the way. Through his adventures, he learns the joys and emotions of being human, and gains the strength to embrace his destiny. Ultimately learning his friends and family are in danger, Astro Boy marshals his awesome super powers and returns to Metro City in a valiant effort to save everything he cares about and to understand what it means to be a hero.


Release Info:
==============
original name .... : Astro Boy 2009 BDRip
ripper.............: Recalled2Life (R2L)
encoder............: Recalled2Life (R2L)
video codec........: H264/.MP4                   
video bitrate......: 2300 Kbps                           
audio codec........: AAC-LC	                                        
aspect ratio.......: 2.35:1                              
resolution.........: 1280 x 544                             
genre..............: Animation | Action | Family         
runtime............: 1h 33mn
language...........: English                              
subtitles..........: English | Spanish
2ch Audio..........: 2ch Audio for XBox Viewers 



Source:
========
Astro Boy 2009 Blu-Ray 1080p MPEG-TS AVC/DTS-HD Master Audio [23.7 GB]


Notes:
=======
ChattChitto RG Encourages Burning this Film with ConvertXtoDVD.
Enhanced and Filtered for your viewing pleasure ;)